# xmcd
# 
# Track frame offsets:
#     150
#     15099
#     33902
#     50669
#     65303
# 
# Disc length: 1048
# 
# Revision: 0
# Processed by: cddbd v1.5.2PL0 Copyright (c) Steve Scherf et al.
# Submitted via: fre:ac v1.0.31
# 
DISCID=31041605
DTITLE=Jannet - Here I Am
DYEAR=0
DGENRE=Country
TTITLE0=City Girl
TTITLE1=Dear John
TTITLE2=Cowboy Come Home
TTITLE3=Asking for Travel
TTITLE4=Hear The Angels Crying
EXTD=
EXTT0=
EXTT1=
EXTT2=
EXTT3=
EXTT4=
PLAYORDER=
